<svg width="150" height="150" viewBox="0 0 150 150" fill="none" xmlns="http://www.w3.org/2000/svg">
<g opacity="0.4">
<path d="M115.28 63.8527C118.355 64.1664 120.895 63.2647 123.347 61.8725C126.338 60.1773 128.361 57.864 128.361 57.864C128.361 57.864 126.977 60.8138 124.276 63.157C121.725 65.4802 117.148 67.921 112.831 66.8226C113.596 65.8038 114.427 64.8137 115.28 63.8527Z" fill="black"/>
<path d="M44.2838 87.8717C53.0103 85.4508 58.4216 85.9017 62.4083 88.47C64.4278 89.7733 66.8474 91.665 67.7007 92.9492C65.1385 91.0675 61.6203 90.1358 59.1814 90.3608C56.2153 90.4108 55.0286 92.7142 55.0286 92.7142C51.783 86.8042 42.5056 89.3567 39.2539 90.2517C38.9298 90.3408 38.6655 90.4133 38.4731 90.4592C38.1447 90.5383 37.7916 90.625 37.4196 90.7167C35.3876 91.2167 32.7923 91.855 30.5862 92.0867C26.8652 92.4008 23.7467 90.9008 22.2449 88.0775C20.3033 84.01 21.5983 79.0103 23.031 75.5215C25.5153 69.7382 29.9066 64.4545 35.3956 60.6414C37.9055 59.1023 40.6252 57.7108 43.5452 57.8776C44.3978 58.0344 45.0848 58.4949 45.4825 59.1615C46.4303 61.0335 45.2248 63.043 44.4096 64.0917C43.6522 65.0233 41.8972 65.3762 41.9675 63.6803C42.0154 62.5725 42.9184 61.7492 43.2471 61.494C43.6522 61.2302 44.1768 61.1803 44.4886 61.1803C44.7843 60.9059 45.0126 58.9848 42.5687 59.6121C39.3792 60.6122 36.9645 63.1021 34.3613 66.0035C29.6968 71.5809 27.0706 76.6088 26.0991 81.8339C25.6803 85.0392 26.241 87.2642 27.8062 88.6458C31.2972 91.0567 34.0746 90.3725 40.6539 88.7508C41.7509 88.4808 42.9545 88.1842 44.2838 87.8717Z" fill="black"/>
<path fill-rule="evenodd" clip-rule="evenodd" d="M36.0348 72.2454C39.3058 67.8735 43.3903 65.325 45.4216 66.6581C47.2998 68.0267 45.8554 71.4676 45.3918 72.572C45.3443 72.6854 45.3069 72.7743 45.2847 72.8336C46.0134 73.0197 48.3448 71.3537 49.7039 69.8538C50.7837 68.6577 52.6333 67.1193 53.8014 66.678C54.6746 66.2561 56.0232 66.1192 56.9075 66.6482C57.5006 66.9917 57.8983 67.6968 57.94 68.4423C58.057 70.5203 55.6392 73.9314 54.4268 72.2063C54.1773 71.4613 54.4499 70.6672 55.2353 69.8438C55.6336 69.4318 56.1233 69.2458 56.7351 69.2651C56.9766 68.883 56.915 68.3247 56.5335 68.0988C56.1339 67.8536 55.328 68.0204 54.5868 68.5986C51.9599 70.6871 49.6517 74.1473 48.3123 77.9597C48.0753 78.6755 47.9458 79.7633 48.3665 80.5089C49.5173 82.2826 52.2095 79.8125 52.2095 79.8125C54.0273 78.195 55.7798 75.9503 57.1571 73.9607C60.7324 68.7853 65.4828 64.315 67.58 67.2169C67.5952 67.2366 67.613 67.2624 67.6303 67.2877C67.6563 67.3255 67.6813 67.3618 67.6952 67.3738C67.725 67.3346 68.0947 66.7073 68.0947 66.7073H71.4802C71.4802 66.7073 64.3103 79.1753 64.3009 79.1952C64.1515 79.4988 64.0569 79.9593 64.2978 80.1653C64.479 80.2929 64.7828 80.1587 64.8284 80.1386L64.8323 80.1369L64.8343 80.1361C66.6938 79.2343 69.5572 75.1176 69.5708 75.0977H70.7372C68.9087 77.7444 66.6458 80.8612 63.836 82.8414C63.0568 83.3608 62.03 83.9 61.0162 83.5375C60.0542 82.9319 60.1155 82.1923 60.1884 81.3123C60.1968 81.2098 60.2056 81.105 60.2128 80.9987C60.2128 80.9987 60.2114 80.9999 60.2092 81.0024C60.2078 81.004 60.2059 81.0061 60.2037 81.0087L60.1913 81.0229C59.934 81.319 57.4303 84.2008 55.3174 83.5867C54.5806 83.3508 53.4025 82.7138 54.2769 79.6749C54.2769 79.6749 54.3435 79.4011 54.3945 79.1952C54.1923 79.3912 53.8338 79.7341 53.8338 79.7341C51.7315 81.7928 49.3479 84.1058 46.3632 83.6067C44.3503 82.9803 44.1952 81.0638 44.1274 80.2267C44.1198 80.1326 44.1133 80.052 44.1053 79.9886C43.8708 78.0684 46.0026 74.3301 46.2968 73.8141L46.3179 73.777C46.3257 73.7633 46.3303 73.7547 46.3303 73.7547C45.6823 73.9413 45.1086 74.0783 44.6313 74.1666C44.5945 74.2251 43.8234 75.4997 43.8234 75.4997L43.7742 75.5813C42.9499 76.9479 42.0944 78.3661 40.9943 79.548L40.7814 79.7732C39.1303 81.7044 35.2495 85.3117 33.1584 82.8314C31.7525 80.7242 33.0445 76.1662 36.0348 72.2454ZM64.7863 68.8537C64.3189 69.2651 62.4022 71.7065 61.7431 72.6176C59.0957 76.1855 58.2374 78.7633 58.1665 79.6065C58.1416 79.8617 58.2293 80.1068 58.4515 80.2537C58.6363 80.3907 58.9139 80.3713 59.0819 80.3222C60.2625 79.6656 60.9863 78.7247 61.7058 77.6268C61.7058 77.6268 62.2186 76.8427 62.2148 76.852C63.8423 74.1473 65.5736 71.1377 67.0404 68.5108C66.9857 68.0795 66.3578 67.4715 64.7863 68.8537ZM43.2826 74.3135C43.2969 74.2843 43.3262 74.1958 43.3262 74.1958C43.3654 74.1081 43.3816 74.0683 43.3816 74.039C43.3816 74.0198 43.3753 74.0098 43.3692 74.0098C42.3684 73.7154 41.0285 73.0782 40.3147 71.7065C40.3135 71.6938 40.311 71.6893 40.3088 71.685L40.3078 71.683L40.3068 71.6808L40.3053 71.6767C40.2935 71.6767 40.2624 71.6866 40.2481 71.6966C39.1098 73.3333 37.9405 75.0977 37.2036 77.0973L37.1128 77.3916C36.8558 78.2149 36.5396 79.2343 37.1532 79.9693C37.4426 80.3322 38.0108 80.2437 38.4222 80.1068C39.7975 79.3967 40.9008 77.924 41.786 76.7423L41.8064 76.7151C41.8064 76.7151 43.2783 74.3135 43.2826 74.3135ZM44.0655 72.8728C44.0655 72.8728 44.7147 71.3829 44.7208 71.363C44.9443 70.6964 45.1409 69.9808 45.1409 69.3441C45.1409 68.8736 45.0333 68.4423 44.7495 68.1088C44.2889 67.7459 43.4968 67.9327 42.987 68.2855C42.4555 68.6869 41.2501 69.7947 41.5432 71.2062C41.756 71.9318 42.4462 72.5392 43.3617 72.8236L43.6529 72.8728L43.6768 72.8783C43.8373 72.9154 43.976 72.9475 44.0655 72.8728Z" fill="black"/>
<path fill-rule="evenodd" clip-rule="evenodd" d="M87.504 75.9183C87.1773 75.2132 86.4023 74.762 85.5773 74.8112C82.8949 75.0557 80.2717 77.2613 78.8945 80.4272C78.1719 82.0546 77.7774 83.3975 77.5185 85.535C78.3524 84.5742 80.0532 82.9956 81.9837 82.133C81.9837 82.133 82.2464 80.0842 83.5857 78.2614C84.0923 77.5065 85.1073 76.2911 86.2465 76.6141C87.2407 76.9477 86.8907 79.7022 85.569 82.3682C84.5898 84.3283 83.0934 86.29 81.5774 87.6417C80.2381 88.7792 78.2566 90.1508 76.5222 89.0925C75.4306 88.4458 74.8736 87.0933 74.9912 85.3483C75.5133 80.3979 77.7662 76.1834 80.9905 71.3802C84.3157 66.9205 87.9798 62.3426 92.9182 59.9018C93.9248 59.3921 94.8582 59.2745 95.664 59.5882C95.664 59.5882 91.029 62.1366 88.8198 66.8515L88.7948 66.904C88.2348 68.0947 87.4873 69.6853 88.2632 71.0958C88.6748 71.8407 89.4048 71.8999 89.9923 71.8607C92.7015 71.2333 94.4507 68.7042 95.8798 66.3909C96.709 64.6366 97.4457 62.8915 97.4457 60.9511C97.4457 60.7152 97.4332 60.4015 97.4132 60.1662C98.7073 59.4805 101.36 60.6959 101.36 60.6959C102.579 61.0995 104.607 62.4347 106.375 63.5981C107.613 64.4134 108.723 65.1443 109.336 65.4107C110.064 64.5675 111.256 63.2936 111.929 62.6562L110.956 62.0582C109.452 61.1407 107.866 60.2679 106.299 59.4062L106.131 59.3137C102.451 57.3042 99.4548 58.0099 97.9298 58.5587C97.3315 58.7747 96.7832 58.9608 96.7832 58.9608C95.6515 57.7261 93.7957 57.8431 92.4282 58.1767C87.5115 59.5882 82.9459 63.0291 78.0506 68.9985C74.4522 73.6742 72.2205 77.7125 71.0306 81.7017C70.1132 84.3875 69.8345 88.3383 72.073 90.6808C73.9762 92.6708 76.4997 92.2392 78.2815 91.5233C82.1431 89.6225 85.6132 85.525 87.3423 80.8099C87.759 79.4084 88.2223 77.4281 87.504 75.9183ZM96.3815 61.1471C95.8707 67.0082 91.3148 70.4492 90.1873 70.723C89.504 70.8606 88.3382 70.5568 89.379 68.0967C90.9115 64.7834 93.5273 61.9698 96.3365 60.5291C96.404 60.7743 96.4023 60.9312 96.3815 61.1471Z" fill="black"/>
<path d="M77.0316 66.7141H73.8166L72.0031 69.7822H75.2169L77.0316 66.7141Z" fill="black"/>
<path fill-rule="evenodd" clip-rule="evenodd" d="M114.68 88.2842C114.499 88.8233 114.984 89.0192 115.33 88.7842C117.185 87.695 118.684 85.47 119.884 83.6875C119.969 83.5608 120.054 83.4358 120.136 83.3143H121.28C120.408 84.7258 117.046 89.8525 114.238 91.3817C114.147 91.4308 114.057 91.48 113.969 91.5292C113.294 91.9017 112.673 92.245 111.874 92.0975C110.554 91.9308 110.489 90.2642 110.729 89.3333C109.98 90.1267 108.364 91.675 106.914 92.0675C105.651 92.3125 103.995 91.8133 104.452 88.6175C102.325 91.2833 99.7112 93.3025 98.1328 91.3525C97.027 89.97 97.5678 87.6367 98.7378 84.2058C98.7378 84.2058 99.1312 83.0305 99.1753 82.883C99.1587 82.8737 99.1545 82.8737 99.1445 82.8737C98.5003 83.0388 97.6812 83.0858 97.3978 83.1019C97.3462 83.1049 97.312 83.1068 97.3003 83.1083C95.4545 86.3433 93.1137 89.8817 89.762 91.6458C89.2695 91.9017 88.0137 92.43 87.017 91.9208C86.0478 91.3717 85.6678 90.2742 85.8545 88.5683C86.1195 86.3925 87.0762 84.4908 88.0353 82.7168C89.8195 79.9232 92.292 76.5314 95.5995 75.1592C96.3378 74.8262 97.4328 74.6202 98.3195 75.0608C99.0753 75.6098 99.2778 76.4038 99.2778 77.2471C99.2778 77.6392 99.232 78.0412 99.182 78.4333C98.8937 79.8055 98.3178 81.0702 97.8612 82.0105C98.082 82.158 99.377 81.8543 99.7128 81.5991C104.339 71.9342 109.634 64.8569 115.902 59.9461L115.951 59.9168C117.17 59.0835 118.687 58.0542 120.077 58.3193C120.504 58.3977 120.829 58.7406 120.906 59.1918C121.134 60.5933 120.516 61.7695 119.959 62.8182C119.479 62.975 118.748 63.1125 118.748 63.1125L119.264 62.0539C119.632 61.3283 119.953 60.691 119.912 59.8284C119.804 59.6032 119.68 59.5932 119.584 59.6032C118.667 59.7893 117.492 60.9263 116.359 62.034L115.624 62.7398C110.964 67.3954 105.485 77.1295 104.637 79.1683C106.551 78.2373 112.864 71.9833 115.949 67.6798C116.58 67.6606 117.115 67.5523 117.115 67.5523C116.621 68.5232 113.241 72.8652 109.231 76.6982C107.383 78.4725 105.349 80.0893 103.569 81.3247C102.693 83.2166 101.823 85.3042 101.449 87.5C101.407 87.8042 101.307 89.1075 102.275 89.0292C103.515 88.755 105.749 85.0592 105.749 85.0592L105.833 84.9292C107.942 81.6252 110.611 77.4443 114.251 75.316C115.1 74.8355 116.329 74.581 117.168 75.11C117.364 75.2376 117.839 75.8158 117.997 76.0802C117.997 76.0802 118.346 75.4728 118.509 75.1791H121.939L116.932 84.0892C116.932 84.0892 115.133 86.9117 114.68 88.2842ZM89.8778 87.5292C89.8845 87.8433 89.9428 88.1467 90.1212 88.4117C91.607 90.1367 95.1687 85.1667 96.207 82.8538C95.3712 82.4909 93.9862 81.6968 93.3745 80.276H93.3712C91.912 82.1873 89.8437 85.6083 89.8778 87.5292ZM94.6103 79.6978C94.9478 81.3147 96.6937 81.9028 96.7937 81.8343C97.3412 80.8834 97.787 79.8148 98.0787 78.727L98.0862 78.6586L98.0912 78.6183C98.1278 78.3255 98.167 78.0071 98.167 77.6977C98.167 77.1687 98.057 76.6783 97.6487 76.4038C97.2087 76.247 96.6087 76.3547 96.2112 76.6683C95.2828 77.2173 94.3237 78.3057 94.6103 79.6978ZM110.471 88.0883L110.802 87.7942C112.498 85.6867 113.854 83.285 115.161 80.9618C115.226 80.8468 115.292 80.7313 115.358 80.6154C115.964 79.5465 116.588 78.4462 117.239 77.394C117.269 77.3448 117.322 77.188 117.322 77.1295C117.322 76.9434 117.188 76.7567 117.074 76.649C116.574 76.443 116.101 76.7075 115.666 77.0212C113.125 79.0534 111.382 81.965 109.885 84.465L109.805 84.5992L109.67 84.8825L109.659 84.905C109.137 85.9867 108.6 87.0967 108.628 88.2942C108.654 88.46 108.769 88.6767 108.93 88.735C109.504 88.9558 109.981 88.5275 110.443 88.1142L110.471 88.0883Z" fill="black"/>
</g>
</svg>
