<svg width="26" height="18" viewBox="0 0 26 18" fill="none" xmlns="http://www.w3.org/2000/svg">
<path d="M14.8505 17.2685C14.8694 17.2847 15.4496 17.4092 16.1397 17.5449C16.8298 17.6807 17.402 17.771 17.4112 17.7458C17.4203 17.7205 17.4917 17.3106 17.5698 16.8348C17.7266 15.8793 18.1064 14.7637 18.5122 14.066C19.7771 11.8916 22.0465 10.4519 24.7991 10.0777L25.5 9.98238L25.5 9.02185L25.5 8.06124L24.8647 7.97001C20.7025 7.3724 17.989 4.70898 17.4813 0.723151C17.4482 0.46288 17.4086 0.25 17.3934 0.25C17.253 0.25 14.927 0.729735 14.883 0.767739C14.8512 0.79522 14.8749 1.03921 14.9357 1.30986C15.6088 4.30676 17.5359 6.74542 20.0368 7.76508L20.6367 8.00968L8.30058 8.02884L0.499999 8.041L0.499999 9.98498L8.32064 9.99715L20.6277 10.0164L19.8703 10.3448C17.9055 11.1967 16.35 12.8678 15.4339 15.1108C15.1729 15.7498 14.779 17.2067 14.8505 17.2685Z" fill="white"/>
</svg>
