<svg width="150" height="150" viewBox="0 0 150 150" fill="none" xmlns="http://www.w3.org/2000/svg">
<g opacity="0.4">
<path d="M23.855 79.3378C21.125 78.0215 17.0069 74.6069 28.4242 64.3436C39.8417 54.0796 56.7837 54.0505 58.8106 64.6011C60.3569 72.6506 56.6617 78.6856 51.6125 83.7325C44.7585 90.5833 35.4264 94.3208 32.2667 93.1066C27.7277 91.3633 31.2737 84.5691 31.2737 84.5691C33.5902 80.3523 35.8393 79.7327 38.4438 80.1061C40.9262 80.4616 41.8911 82.9111 36.6377 86.9758C31.384 91.04 33.5902 96.2266 44.2352 87.3591C54.8804 78.4912 54.8254 71.7584 52.3432 68.3644C49.8612 64.9711 39.3266 71.7855 34.7762 75.3163C30.2256 78.8468 26.5852 80.6537 23.855 79.3378Z" fill="black"/>
<path d="M81.6663 62.5001C80.2853 62.5001 79.166 63.6196 79.166 65.0007C79.166 66.3806 80.2853 67.5001 81.6663 67.5001C83.0467 67.5001 84.166 66.3806 84.166 65.0007C84.166 63.6196 83.0467 62.5001 81.6663 62.5001Z" fill="black"/>
<path d="M125.774 82.2428C125.774 83.1316 126.462 83.8518 127.31 83.8518H128.333V86.6667H126.049C123.629 86.6667 121.666 84.6259 121.666 82.1096V64.797L125.774 64.1667V82.2428Z" fill="black"/>
<path d="M84.1667 86.6667H80V69.8078L84.1667 69.1667V86.6667Z" fill="black"/>
<path d="M86.666 72.1327V86.6668H90.6544V75.1408L90.631 73.7801C90.631 71.6292 95.2285 72.0414 95.2285 72.0414L96.666 68.7454C90.3043 66.8456 86.666 72.1327 86.666 72.1327Z" fill="black"/>
<path d="M101.927 72.2799V82.2428C101.927 83.1316 102.53 83.8518 103.271 83.8518H104.166V86.6668H102.167C100.05 86.6668 98.3329 84.6259 98.3329 82.1096V64.797L101.927 64.1668V69.1527H104.087V72.2799H101.927Z" fill="black"/>
<path fill-rule="evenodd" clip-rule="evenodd" d="M110.046 78.1251C110.046 78.1251 109.845 82.3087 112.553 83.3818C115.26 84.4534 118.604 82.3439 118.604 82.3439L120 84.8559C118.528 85.9943 115.848 86.6668 113.89 86.6668C108.96 86.6668 105.833 82.5819 105.833 77.3291C105.833 72.0775 108.76 68.3334 113.69 68.3334C118.62 68.3334 119.841 72.8729 119.841 78.1251H110.046ZM115.93 74.9748C115.93 74.9748 115.461 71.5542 113.122 71.5542C110.781 71.5542 110.314 74.9748 110.314 74.9748H115.93Z" fill="black"/>
<path fill-rule="evenodd" clip-rule="evenodd" d="M71.7255 69.1668C71.7255 69.1668 69.9557 69.1913 68.1728 69.5173C66.4975 69.8224 64.8177 70.9191 64.8177 70.9191L66.1479 73.5212C66.1479 73.5212 67.8643 71.9879 70.5403 71.9879C74.1091 71.9879 73.6053 75.3907 73.6053 75.3907C66.6533 74.0357 63.2382 77.4297 63.335 80.9273C63.378 82.5166 63.6067 84.1276 65.5077 85.3226C71.5925 89.1518 77.4997 83.5826 77.4997 83.5826V74.3431C77.4997 71.5743 74.9143 69.1668 71.7255 69.1668ZM73.5136 83.017C73.5136 83.017 70.7689 84.2359 69.0078 83.2339C67.246 82.2332 67.4523 79.4933 69.1103 78.6441C70.7689 77.796 73.5136 78.3181 73.5136 78.3181V83.017Z" fill="black"/>
</g>
</svg>
