<?xml version="1.0" encoding="utf-8"?>
<!-- Generator: Adobe Illustrator 24.2.0, SVG Export Plug-In . SVG Version: 6.00 Build 0)  -->
<svg version="1.1" id="Layer_1" xmlns="http://www.w3.org/2000/svg" xmlns:xlink="http://www.w3.org/1999/xlink" x="0px" y="0px"
	 viewBox="0 0 130 90" style="enable-background:new 0 0 130 90;" xml:space="preserve">
<style type="text/css">
	.st0{fill:#A4C639;}
</style>
<g>
	<path class="st0" d="M56.3,20.4l2.2,4c-4.2,2.1-7.1,6.1-7.1,10.8h27c0-4.7-2.9-8.7-7.1-10.8l2.2-4c0,0,0.2-0.2-0.2-0.3
		c-0.2-0.2-0.3,0.2-0.3,0.2l-2.4,4c-1.9-0.8-3.9-1.3-5.9-1.3c-2,0-4.1,0.4-5.9,1.3l-2.4-4c0,0-0.2-0.2-0.3-0.2
		C56.2,20.2,56.3,20.4,56.3,20.4L56.3,20.4z M58.6,28.2c0.7,0,1.2,0.6,1.3,1.3c0,0.7-0.6,1.2-1.3,1.3c-0.7,0-1.3-0.5-1.3-1.2
		c0,0,0,0,0,0C57.3,28.8,57.8,28.2,58.6,28.2C58.5,28.2,58.6,28.2,58.6,28.2z M71.4,28.2c0.7,0,1.2,0.6,1.3,1.3
		c0,0.7-0.6,1.2-1.3,1.3c-0.7,0-1.3-0.5-1.3-1.2c0,0,0,0,0,0C70.1,28.8,70.7,28.2,71.4,28.2C71.4,28.2,71.4,28.2,71.4,28.2z
		 M51.3,36.7v20.6c0,1,1.3,2.4,2.2,2.4h3.2v7.1c0,1.8,1.3,3.2,2.9,3.2c1.6,0,2.9-1.4,2.9-3.2v-7.1h4.7v7.1c0,1.8,1.3,3.2,2.9,3.2
		s2.9-1.4,2.9-3.2v-7.1h3.2c1,0,2.2-1.3,2.2-2.4V36.7H51.3z"/>
	<g>
		<path id="A" class="st0" d="M46.8,36.3c1.6,0,2.9,1.4,2.9,3.2v12.2c0,1.8-1.3,3.2-2.9,3.2c-1.6,0-2.9-1.4-2.9-3.2V39.5
			C43.9,37.7,45.2,36.3,46.8,36.3L46.8,36.3z"/>
	</g>
	<g>
		<path id="A_1_" class="st0" d="M83.2,36.3c1.6,0,2.9,1.4,2.9,3.2v12.2c0,1.8-1.3,3.2-2.9,3.2c-1.6,0-2.9-1.4-2.9-3.2V39.5
			C80.3,37.7,81.5,36.3,83.2,36.3L83.2,36.3z"/>
	</g>
</g>
</svg>
