<?xml version="1.0" encoding="utf-8"?>
<!-- Generator: Adobe Illustrator 24.2.0, SVG Export Plug-In . SVG Version: 6.00 Build 0)  -->
<svg version="1.1" id="Layer_1" xmlns="http://www.w3.org/2000/svg" xmlns:xlink="http://www.w3.org/1999/xlink" x="0px" y="0px"
	 viewBox="0 0 130 90" style="enable-background:new 0 0 130 90;" xml:space="preserve">
<path id="B" d="M78.6,46.6c-0.1-6.3,5.2-9.4,5.4-9.5c-2.9-4.3-7.5-4.9-9.1-5c-3.9-0.4-7.6,2.3-9.6,2.3c-2,0-5-2.2-8.3-2.2
	c-4.2,0.1-8.2,2.5-10.3,6.3c-4.4,7.6-1.1,19,3.2,25.2c2.1,3,4.6,6.5,7.9,6.3c3.2-0.1,4.4-2.1,8.2-2.1s4.9,2.1,8.3,2
	c3.4-0.1,5.6-3.1,7.7-6.1c2.4-3.5,3.4-6.9,3.5-7.1C85.3,56.6,78.7,54.1,78.6,46.6"/>
<path d="M72.4,28c1.7-2.1,2.9-5.1,2.6-8c-2.5,0.1-5.6,1.7-7.4,3.8c-1.6,1.9-3,4.9-2.6,7.7C67.7,31.7,70.6,30.1,72.4,28"/>
</svg>
