<?xml version="1.0" encoding="utf-8"?>
<!-- Generator: Adobe Illustrator 24.2.0, SVG Export Plug-In . SVG Version: 6.00 Build 0)  -->
<svg version="1.1" id="Layer_1" xmlns="http://www.w3.org/2000/svg" xmlns:xlink="http://www.w3.org/1999/xlink" x="0px" y="0px"
	 viewBox="0 0 130 90" style="enable-background:new 0 0 130 90;" xml:space="preserve">
<style type="text/css">
	.st0{fill:#2684FF;}
	.st1{fill:url(#SVGID_1_);}
	.st2{fill:url(#SVGID_2_);}
</style>
<g id="Layer_2_1_">
	<g id="trello">
		<g id="jira">
			<path class="st0" d="M88.6,43.6L65,20L41.4,43.6c-0.8,0.8-0.8,2,0,2.8L65,70l23.6-23.6C89.4,45.6,89.4,44.4,88.6,43.6z M65,52.4
				L57.6,45l7.4-7.4l7.4,7.4L65,52.4z"/>
			
				<linearGradient id="SVGID_1_" gradientUnits="userSpaceOnUse" x1="-269.9609" y1="-262.3106" x2="-273.3442" y2="-258.9432" gradientTransform="matrix(3.06 0 0 3.06 889.8578 832.77)">
				<stop  offset="0.18" style="stop-color:#0052CC"/>
				<stop  offset="1" style="stop-color:#2684FF"/>
			</linearGradient>
			<path class="st1" d="M65,37.7c-4.8-4.9-4.8-12.7,0-17.6L48.8,36.2l8.8,8.8L65,37.7z"/>
			
				<linearGradient id="SVGID_2_" gradientUnits="userSpaceOnUse" x1="-269.0785" y1="-252.6356" x2="-265.7111" y2="-256.003" gradientTransform="matrix(3.06 0 0 3.06 889.8578 832.77)">
				<stop  offset="0.18" style="stop-color:#0052CC"/>
				<stop  offset="1" style="stop-color:#2684FF"/>
			</linearGradient>
			<path class="st2" d="M72.4,45L65,52.4c4.8,4.9,4.8,12.7,0,17.6l0,0l16.2-16.2L72.4,45z"/>
		</g>
	</g>
</g>
</svg>
