<?xml version="1.0" encoding="utf-8"?>
<!-- Generator: Adobe Illustrator 24.2.0, SVG Export Plug-In . SVG Version: 6.00 Build 0)  -->
<svg version="1.1" id="Layer_1" xmlns="http://www.w3.org/2000/svg" xmlns:xlink="http://www.w3.org/1999/xlink" x="0px" y="0px"
	 viewBox="0 0 130 90" style="enable-background:new 0 0 130 90;" xml:space="preserve">
<style type="text/css">
	.st0{fill:#EF533F;}
</style>
<path class="st0" d="M72.8,66.8c-0.3,0-0.7-0.2-0.8-0.5l-7.5-12.4l-13.9,3.8c-0.4,0.1-0.9-0.1-1.1-0.5L33.1,26.5
	c-0.3-0.5-0.1-1.1,0.4-1.3c0.1-0.1,0.2-0.1,0.3-0.1l13.8-1.9c0.4-0.1,0.8,0.1,1,0.5l16.7,27.9l19.4-5.3l-6.5-9.1
	c-0.3-0.4-0.2-1.1,0.2-1.4c0.1-0.1,0.2-0.1,0.3-0.2l9.1-2.1c0.4-0.1,0.8,0,1,0.3l7.9,9.8c0.3,0.4,0.3,1-0.2,1.4
	c-0.1,0.1-0.2,0.1-0.4,0.2L88,47.4l7.2,10.2c0.3,0.4,0.2,1.1-0.2,1.4c-0.1,0.1-0.2,0.1-0.2,0.1l-21.7,7.6
	C73,66.7,72.9,66.8,72.8,66.8L72.8,66.8z M66.4,53.3l6.8,11.3l19.7-6.9L86,48L66.4,53.3z M35.5,26.8l15.2,28.7l12.7-3.4L47.3,25.3
	L35.5,26.8z M80.8,37.2l6.1,8.5l7.5-2l-6.5-8.2L80.8,37.2z"/>
</svg>
