<?xml version="1.0" encoding="utf-8"?>
<!-- Generator: Adobe Illustrator 24.2.0, SVG Export Plug-In . SVG Version: 6.00 Build 0)  -->
<svg version="1.1" id="Layer_1" xmlns="http://www.w3.org/2000/svg" xmlns:xlink="http://www.w3.org/1999/xlink" x="0px" y="0px"
	 viewBox="0 0 130 90" style="enable-background:new 0 0 130 90;" xml:space="preserve">
<style type="text/css">
	.st0{fill:#599636;}
	.st1{fill:#6CAC48;}
	.st2{fill:#C2BFBF;}
</style>
<g>
	<path class="st0" d="M64.8,15.2l1.6,3c0.3,0.6,0.7,1,1.3,1.6c1.3,1.3,2.7,2.7,3.8,4.2c2.7,3.5,4.5,7.5,5.8,11.8
		c0.8,2.7,1.3,5.4,1.3,8c0.1,8-2.7,15.1-8.3,20.9c-0.8,0.8-1.8,1.7-3,2.5c-0.6,0-0.8-0.4-1-0.8c-0.4-0.7-0.7-1.6-0.8-2.4
		c-0.1-1-0.3-2-0.3-3v-0.6C65.1,60.3,64.7,15.3,64.8,15.2L64.8,15.2z"/>
	<path class="st1" d="M64.8,15.1c0-0.1-0.1,0-0.1,0c0,0.7-0.1,1.3-0.6,1.8c-0.4,0.6-0.8,1-1.4,1.4c-3,2.5-5.2,5.5-7.1,8.9
		c-2.4,4.5-3.7,9.4-4.1,14.7c-0.1,1.8,0.6,8.5,1.1,10.3c1.6,5.1,4.5,9.3,8.2,12.8c0.8,0.8,1.8,1.7,3,2.5c0.3,0,0.3-0.3,0.4-0.4
		c0.1-0.4,0.3-0.8,0.3-1.3c0.3-1.7,0.4-3.2,0.7-4.9L64.8,15.1L64.8,15.1z"/>
	<path class="st2" d="M66.5,69.1c0-0.7,0.4-1.4,0.8-2c-0.4-0.1-0.7-0.4-0.8-0.8c-0.1-0.3-0.4-0.7-0.4-1.1c-0.4-1.4-0.6-2.8-0.7-4.2
		v-0.8c-0.1,0.1-0.1,1.3-0.1,1.4c-0.1,1.6-0.3,3-0.6,4.4c-0.4,0.6-0.4,1.1-0.8,1.7c0,0,0,0.1,0,0.3c0.6,1.7,0.7,3.5,0.8,5.4v0.7
		c0,0.8,0,0.6,0.6,0.8c0.3,0.1,0.6,0.1,0.8,0.3c0.1,0,0.3-0.1,0.3-0.3l-0.1-1.1v-3C66.2,70.1,66.3,69.5,66.5,69.1L66.5,69.1z"/>
</g>
</svg>
