<?xml version="1.0" encoding="utf-8"?>
<!-- Generator: Adobe Illustrator 21.0.2, SVG Export Plug-In . SVG Version: 6.00 Build 0)  -->
<svg version="1.1" id="Layer_1" xmlns="http://www.w3.org/2000/svg" xmlns:xlink="http://www.w3.org/1999/xlink" x="0px" y="0px"
	 viewBox="0 0 130 90" style="enable-background:new 0 0 130 90;" xml:space="preserve">
<style type="text/css">
	.st0{fill:#00678C;}
	.st1{fill:#CE8B2C;}
</style>
<g transform="matrix(.037376 0 0 .037376 1.069994 -1.319339)">
	<path class="st0" d="M422.3,1789.1h85v-336.8L640.1,1746c15,35.3,36.6,48.4,78.5,48.4c41.8,0,62.2-13.1,77.7-48.4l132.1-293.7
		v336.8h85.7v-336.8c0-32.7-13.1-48.4-40.6-56.9c-64.8-19.6-107.9-2.6-127.5,41.2L715.9,1727l-125.6-290.4
		c-19-43.8-62.8-60.8-128.2-41.2c-26.8,8.5-39.9,24.2-39.9,56.9l0,336.8H422.3z M1084.9,1515.1h85.7v185.1
		c-0.6,10.5,3.3,34,49.8,34.6c24.2,0.7,184.4,0,185.7,0v-221.1h85.7v302.8c0,74.6-92.4,90.9-135.4,91.6H1087v-56.9h270.1
		c54.9-5.9,48.4-33.4,48.4-42.5v-22.3h-181.2c-84.4-0.7-138.7-37.9-139.3-80.5v-191L1084.9,1515.1z M2922.9,1300.5
		c-52.3-1.3-92.9,3.9-126.9,18.3c-9.8,4-25.5,4-26.8,16.4c5.2,5.2,5.9,13.7,10.5,20.9c7.8,13.1,21.6,30.7,34,39.9
		c13.8,10.5,27.5,20.9,41.9,30.1c25.5,15.7,54.3,24.8,79.1,40.5c14.4,9.2,28.8,20.9,43.2,30.8c7.3,5.2,11.8,13.8,20.9,17v-2
		c-4.6-5.9-5.9-14.4-10.5-20.9c-6.6-6.5-13.1-12.4-19.6-19c-19-25.5-42.5-47.8-68-66.1c-20.9-14.4-66.7-34-75.2-58.2l-1.3-1.3
		c14.4-1.3,31.4-6.6,45.1-10.5c22.3-5.9,42.5-4.6,65.4-10.5c10.5-2.6,20.9-5.9,31.4-9.2v-5.9c-11.8-11.8-20.3-27.5-32.7-38.6
		c-33.4-28.8-70-56.9-107.9-80.5c-20.3-13.1-46.4-21.6-68-32.7c-7.9-3.9-20.9-5.9-25.5-12.4c-11.8-14.4-18.3-33.4-26.8-50.4
		c-19-36-37.3-75.9-53.6-113.8c-11.8-25.5-19-51-33.4-74.6c-67.4-111.2-140.6-178.6-253.1-244.6c-24.2-13.7-53-19.6-83.6-26.8
		l-49.1-2.6c-10.5-4.6-20.9-17-30.1-22.9c-37.3-23.5-133.4-74.6-160.9-7.2c-17.7,42.5,26.2,84.4,41,106c11.1,15,25.5,32,33.4,49.1
		c4.4,11.1,5.9,22.9,10.5,34.7c10.5,28.8,20.3,60.8,34,87.7c7.3,13.7,15,28.1,24.2,40.6c5.2,7.2,14.4,10.5,16.3,22.2
		c-9.2,13.1-9.8,32.7-15,49.1c-23.6,73.9-14.4,165.5,19,219.7c10.5,16.3,35.2,52.3,68.7,38.6c29.4-11.8,22.9-49.1,31.4-81.8
		c2-7.8,0.7-13.1,4.6-18.3v1.3l26.8,54.3c20.3,32,55.6,65.4,85,87.7c15.7,11.8,28.1,32.1,47.7,39.2v-2h-1.3
		c-3.9-5.9-9.8-8.5-15.1-13.1c-11.8-11.8-24.8-26.2-34-39.2c-27.5-36.6-51.6-77.2-73.2-119c-10.5-20.3-19.6-42.5-28.1-62.8
		c-4-7.9-4-19.6-10.5-23.5c-9.8,14.4-24.2,26.8-31.4,44.5c-12.4,28.1-13.7,62.8-18.3,98.8c-2.6,0.7-1.5,0-2.6,1.3
		c-20.9-5.2-28.1-26.8-36-45.1c-19.6-46.4-22.9-121-5.9-174.6c4.6-13.7,24.2-56.9,16.4-70c-4-12.4-17-19.6-24.2-29.4
		c-8.5-12.4-17.6-28.1-23.5-41.9c-15.7-36.6-23.5-77.2-40.5-113.8c-7.9-17-21.6-34.7-32.7-50.4c-12.4-17.7-26.1-30.1-36-51
		c-3.3-7.2-7.8-19-2.6-26.8c1.3-5.2,3.9-7.2,9.1-8.5c8.5-7.2,32.7,2,41.2,5.9c24.2,9.8,44.5,19,64.7,32.7c9.2,6.5,19,19,30.8,22.3
		h13.8c20.9,4.6,44.5,1.3,64.1,7.2c34.7,11.1,66.1,27.5,94.2,45.2c85.7,54.3,156.3,131.5,204.1,223.7c7.8,15,11.1,28.8,18.3,44.5
		c13.8,32.1,30.8,64.8,44.5,96.2c13.8,30.7,26.8,62.2,46.4,87.7c9.8,13.7,49.1,20.9,66.7,28.1c13.1,5.9,33.4,11.1,45.2,18.3
		c22.2,13.7,44.5,29.4,65.4,44.5C2888.1,1271.2,2920.8,1287.5,2922.9,1300.5L2922.9,1300.5z M2255.8,732.1c-9-0.1-18,1-26.8,3.3v1.3
		h1.3c5.2,10.5,14.4,17.7,20.9,26.8l15.1,31.4l1.3-1.3c9.2-6.5,13.8-17,13.8-32.7c-3.9-4.6-4.6-9.2-7.8-13.7
		C2269.6,740.7,2261.1,737.4,2255.8,732.1L2255.8,732.1z"/>
	<path class="st1" d="M1557.2,1789.1h245.9c28.8,0,56.3-5.9,78.5-16.3c37.3-17,54.9-39.9,54.9-70V1640c0-24.2-20.3-47.1-60.8-62.8
		c-20.9-7.8-47.1-12.4-72.6-12.4h-103.4c-34.7,0-51-10.5-55.6-33.4c-0.6-2.6-0.6-5.2-0.6-7.8V1485c0-2,0-4.6,0.6-7.2
		c4.6-17.7,13.7-22.3,44-25.5h251.8v-56.9h-239.4c-34.7,0-53,2-69.3,7.2c-50.4,15.7-72.6,40.5-72.6,84.4v49.7
		c0,38.6,43.2,71.3,116.4,79.1c7.8,0.7,16.3,0.7,24.8,0.7h88.3c3.3,0,6.5,0,9.1,0.7c26.8,2.6,38.6,7.2,46.4,17
		c5.2,5.2,6.6,9.8,6.6,15.7v49.7c0,5.9-3.9,13.8-11.8,20.3c-7.8,6.5-20.3,11.1-36.6,11.8c-3.3,0-5.2,0.7-8.5,0.7h-236.2V1789.1z
		 M2468.9,1690.4c0,58.2,44,90.9,131.5,97.5c8.5,0.7,16.3,1.3,24.8,1.3h222.4v-56.9h-224.3c-49.7,0-68.7-12.4-68.7-42.5v-294.3
		h-85.9v295L2468.9,1690.4z M1990.8,1693v-202.7c0-51.7,36.6-83.1,107.9-92.9c7.8-0.7,15.7-1.3,22.9-1.3h162.2
		c8.5,0,15.7,0.7,24.2,1.3c71.3,9.8,107.3,41.2,107.3,92.9V1693c0,41.9-15,64.1-50.4,79.2l83.7,75.8h-98.7l-68-61.5l-68.7,3.9h-91.6
		c-16.8-0.1-33.5-2.3-49.7-6.5C2017.6,1768.8,1990.8,1740.1,1990.8,1693z M2083,1688.4c0,2.6,1.5,5.2,2,8.5
		c4.6,23.5,26.8,36.6,60.8,36.6h77.2l-70.6-64.1h98.7l62.1,56.3c11.8-6.6,19-15.7,21.6-27.5c0.7-2.6,0.7-5.9,0.7-8.5v-194.3
		c0-2.6,0-5.2-0.7-7.8c-4.6-22.2-26.8-34.6-60.2-34.6h-128.9c-37.9,0-62.8,16.3-62.8,42.5L2083,1688.4z"/>
</g>
</svg>
