<?xml version="1.0" encoding="utf-8"?>
<!-- Generator: Adobe Illustrator 24.2.0, SVG Export Plug-In . SVG Version: 6.00 Build 0)  -->
<svg version="1.1" id="Layer_1" xmlns="http://www.w3.org/2000/svg" xmlns:xlink="http://www.w3.org/1999/xlink" x="0px" y="0px"
	 viewBox="0 0 130 90" style="enable-background:new 0 0 130 90;" xml:space="preserve">
<style type="text/css">
	.st0{fill-rule:evenodd;clip-rule:evenodd;fill:#EA2845;}
</style>
<path class="st0" d="M69.5,20c-0.4,0-0.7,0.1-1,0.2c0.7,0.4,1,1,1.2,1.7c0,0.1,0,0.2,0,0.2s0,0.2,0,0.2c0,1.1-0.3,1.3-0.5,2
	c-0.4,0.8-0.3,1.8,0.2,2.6c0,0.1,0.1,0.2,0.2,0.3c-0.5-3.3,2.2-3.8,2.7-4.8c0-0.9-0.7-1.5-1.3-1.9C70.6,20.2,70,20,69.5,20L69.5,20z
	 M73.6,20.7c0,0.3,0,0.2,0,0.4l0,0.3l-0.1,0.3c0,0.1-0.1,0.2-0.1,0.3l-0.1,0.3c0,0-0.1,0.1-0.1,0.2L73,22.6l-0.2,0.3
	c-0.1,0.1-0.1,0.2-0.2,0.2c-0.1,0.1-0.2,0.2-0.2,0.2c-0.3,0.2-0.6,0.4-0.9,0.6c-0.1,0.1-0.2,0.1-0.3,0.2c-0.1,0.1-0.2,0.1-0.2,0.2
	c-0.1,0.1-0.2,0.2-0.2,0.2c-0.1,0.1-0.1,0.2-0.2,0.3l-0.2,0.3l-0.1,0.3l-0.1,0.3L70,26c0,0,0,0.1,0,0.2c0,0.1,0,0.1,0,0.2l0,0.3
	c0,0.1,0,0.2,0,0.2c0,0.1,0,0.2,0,0.3c0,0.1,0,0.2,0.1,0.3l0.1,0.3c0,0.1,0.1,0.1,0.1,0.2l-3-1.2l-1.5-0.4L65,26.3
	c-0.8-0.2-1.6-0.3-2.4-0.3c-0.8-0.1-1.6-0.1-2.4-0.1l-1.7,0.1c-0.8,0.1-1.6,0.2-2.4,0.3l-0.6,0.1l-1.2,0.3l-0.6,0.2l-0.6,0.2
	l-0.4,0.2l-0.4,0.2c0,0-0.1,0-0.1,0l-0.4,0.2c-0.1,0-0.2,0.1-0.3,0.1c0,0-0.1,0-0.1,0.1L51.2,28c-0.1,0.1-0.2,0.1-0.3,0.2l-0.3,0.2
	l-0.3,0.2l-0.2,0.2c-0.1,0.1-0.2,0.2-0.3,0.2l-0.3,0.3l-0.3,0.2l-0.2,0.2c0,0-0.1,0-0.1,0.1c-0.1,0.1-0.1,0.2-0.2,0.2l-0.3,0.4
	l-0.7,0.7c-0.2,0.2-0.5,0.4-0.7,0.6l-0.8,0.5c-0.3,0.1-0.5,0.3-0.8,0.4c-0.3,0.1-0.6,0.2-0.8,0.3c-0.5,0.1-1.1,0.3-1.6,0.4
	c-0.1,0-0.2,0-0.3,0l-0.3,0.1L42,33.4c-0.1,0-0.2,0.1-0.3,0.1s-0.2,0.1-0.3,0.2c-0.1,0.1-0.2,0.1-0.3,0.2c-0.1,0.1-0.2,0.2-0.3,0.2
	l-0.2,0.3c-0.1,0.1-0.1,0.2-0.2,0.3s-0.1,0.2-0.2,0.3l-0.1,0.3l-0.1,0.3L40,36.1c0,0.2,0,0.3,0,0.4s0,0.2,0,0.3c0,0,0,0.1,0,0.2
	c0,0.1,0,0.2,0,0.2l0.1,0.2c0,0.1,0.1,0.2,0.1,0.2l0.2,0.2l0.2,0.2c0.1,0.1,0.2,0.1,0.2,0.2c0.3,0.3,0.4,0.4,0.8,0.6
	c0.1,0,0.1,0.1,0.2,0.1c0.1,0.2,0.1,0.3,0.1,0.4c0,0.1,0.1,0.2,0.1,0.3l0.1,0.2l0.2,0.3l0.2,0.3l0.2,0.2c0.1,0.1,0.2,0.1,0.2,0.2
	l0.3,0.2c0.1,0.1,0.2,0.1,0.3,0.2c0.1,0,0.2,0.1,0.3,0.1c0.1,0,0.2,0.1,0.3,0.1s0.2,0,0.2,0.1c0,0.7,0,1.4,0,1.6
	c0.1,0.3,0.7-0.5,1.3-1.4c-0.1,0.9-0.1,1.9,0,2.3c0.1,0.3,0.9-0.7,1.6-1.8c9.2-2.1,17.6,4.2,18.5,13.2c-0.2-1.4-1.9-2.2-2.7-2
	c-0.4,1-1,2.2-2.1,3c0.1-0.9,0-1.7-0.1-2.6c-0.3,1.2-0.8,2.3-1.6,3.3c-1.2,0.1-2.4-0.4-3.1-1.4c0,0-0.1-0.1-0.1-0.2l-0.1-0.3
	c0-0.1-0.1-0.2-0.1-0.3c0-0.1,0-0.2,0-0.3v-0.2c0-0.1,0-0.2,0.1-0.3l0.1-0.3c0-0.1,0.1-0.2,0.2-0.3c0.2-0.6,0.2-1.1-0.2-1.4
	c-0.1,0-0.2-0.1-0.2-0.1c0,0-0.1,0-0.2,0l-0.1,0l-0.3-0.1c-0.1,0-0.2,0-0.3,0c-0.1,0-0.2,0-0.3,0c-0.1,0-0.1,0-0.2,0
	c-0.1,0-0.2,0-0.3,0l-0.3,0L53.5,52l-0.3,0.1L53,52.3c-3,2-1.2,6.6,0.8,7.9c-0.8,0.1-1.6,0.3-1.8,0.5c0.5,0.4,1.1,0.6,1.7,0.9
	l2.1,0.6c1.1,0.2,2.2,0.3,3.3,0.2c5.7-0.4,10.5-4.8,11.3-10.5l0.1,0.3l0.1,0.7c0,0.1,0,0.2,0,0.3l0,0.4l0,0.4v0.2c0,0.1,0,0.1,0,0.2
	c0,0.1,0,0.2,0,0.2V55c0,0.1,0,0.2,0,0.3c0,0,0,0.1,0,0.2l0,0.3c0,0,0,0.1,0,0.1l0,0.3c0,0,0,0.1,0,0.1l0,0.4v0L70.5,57l-0.1,0.4
	l-0.2,0.8l-0.1,0.4l-0.3,0.8l-0.2,0.4l-0.2,0.4c0,0,0,0.1,0,0.1c-0.9,1.7-2.1,3.2-3.7,4.4c-0.1,0.1-0.2,0.1-0.3,0.2
	c0,0-0.1,0-0.1,0.1l-0.3,0.2l0,0.1h0l0.5-0.1h0l1-0.2c0.1,0,0.2,0,0.3-0.1l0.2,0l0.3,0l0.2-0.1c1.3-0.3,2.5-0.7,3.8-1.2
	c-2.1,2.8-4.9,5.1-8.1,6.6c1.5-0.1,3-0.4,4.4-0.8c5.2-1.5,9.6-5.1,12.3-9.8c-0.5,3-1.7,5.8-3.5,8.3c1.3-0.8,2.4-1.8,3.5-2.9
	c2.9-3,4.8-6.9,5.5-11c0.4,2,0.6,4.2,0.4,6.3C95.2,47.1,86.6,33.5,83,30c0,0.1-0.1,0.2-0.1,0.4l-0.1,0.9l-0.2,0.9l-0.3,0.8l-0.4,0.8
	l-0.5,0.7l-0.5,0.7c-0.2,0.2-0.4,0.4-0.6,0.6l-0.4,0.3l-0.3,0.3c-0.2,0.2-0.5,0.4-0.7,0.5l-0.8,0.4l-0.8,0.4
	c-0.3,0.1-0.6,0.2-0.8,0.3l-0.9,0.2c-0.3,0-0.6,0.1-0.9,0.1l-0.6,0c-0.3,0-0.6,0-0.9,0c-0.3,0-0.6-0.1-0.9-0.1
	c-0.3,0-0.6-0.1-0.9-0.2h0l0.9-0.1l0.9-0.2l0.8-0.3c0.3-0.1,0.6-0.2,0.8-0.4c0.3-0.1,0.5-0.3,0.8-0.4l0.7-0.5
	c0.2-0.2,0.5-0.4,0.7-0.6c0.2-0.2,0.4-0.4,0.6-0.6l0.5-0.7c0,0,0-0.1,0.1-0.1l0.4-0.6l0.4-0.8l0.3-0.8c0.1-0.3,0.2-0.6,0.2-0.8
	l0.1-0.9l0-0.9l0-0.6l-0.1-0.9l-0.2-0.9L79.1,26c-0.1-0.3-0.2-0.5-0.4-0.8l-0.4-0.8l-0.5-0.7l-0.6-0.7l-0.3-0.3l-1.8-1.3
	c-0.1,0-0.2-0.1-0.3-0.1C74.4,21.1,74,20.9,73.6,20.7L73.6,20.7z"/>
</svg>
