<?xml version="1.0" encoding="utf-8"?>
<!-- Generator: Adobe Illustrator 24.2.0, SVG Export Plug-In . SVG Version: 6.00 Build 0)  -->
<svg version="1.1" id="Layer_1" xmlns="http://www.w3.org/2000/svg" xmlns:xlink="http://www.w3.org/1999/xlink" x="0px" y="0px"
	 viewBox="0 0 130 90" style="enable-background:new 0 0 130 90;" xml:space="preserve">
<style type="text/css">
	.st0{clip-path:url(#SVGID_2_);}
	.st1{fill:url(#SVGID_3_);}
	.st2{clip-path:url(#SVGID_5_);}
	.st3{fill:#777BB3;}
	.st4{clip-path:url(#SVGID_7_);}
	.st5{fill:#FFFFFF;}
</style>
<g id="Layer_2_1_">
	<g id="Layer_1-2">
		<g id="PHP">
			<g>
				<defs>
					<path id="SVGID_1_" d="M21.8,45c0,12.4,19.3,22.4,43.2,22.4s43.2-10,43.2-22.4S88.9,22.6,65,22.6S21.8,32.6,21.8,45"/>
				</defs>
				<clipPath id="SVGID_2_">
					<use xlink:href="#SVGID_1_"  style="overflow:visible;"/>
				</clipPath>
				<g class="st0">
					
						<radialGradient id="SVGID_3_" cx="-33.7893" cy="-47.9353" r="0.9477" gradientTransform="matrix(59.86 0 0 59.04 2070.6199 2861.0525)" gradientUnits="userSpaceOnUse">
						<stop  offset="0" style="stop-color:#AEB2D5"/>
						<stop  offset="0.3" style="stop-color:#AEB2D5"/>
						<stop  offset="0.75" style="stop-color:#484C89"/>
						<stop  offset="1" style="stop-color:#484C89"/>
					</radialGradient>
					<path class="st1" d="M21.8,45c0,12.4,19.3,22.4,43.2,22.4s43.2-10,43.2-22.4S88.9,22.6,65,22.6S21.8,32.6,21.8,45"/>
				</g>
			</g>
			<g>
				<defs>
					<rect id="SVGID_4_" x="20" y="20" width="90" height="49.9"/>
				</defs>
				<clipPath id="SVGID_5_">
					<use xlink:href="#SVGID_4_"  style="overflow:visible;"/>
				</clipPath>
				<g class="st2">
					<path class="st3" d="M65,65.7c22.9,0,41.5-9.3,41.5-20.7S87.9,24.3,65,24.3S23.5,33.5,23.5,45S42.1,65.7,65,65.7"/>
				</g>
			</g>
			<g>
				<defs>
					<rect id="SVGID_6_" x="20" y="20" width="90" height="49.9"/>
				</defs>
				<clipPath id="SVGID_7_">
					<use xlink:href="#SVGID_6_"  style="overflow:visible;"/>
				</clipPath>
				<g class="st4">
					<path d="M45.3,47.6c1.5,0.1,2.9-0.2,4.2-1c1-0.9,1.7-2.1,1.8-3.5c0.3-1.5,0.2-2.6-0.3-3.1s-1.7-0.9-3.4-0.9h-3l-1.7,8.5H45.3z
						 M35.4,58c-0.1,0-0.3-0.1-0.4-0.2c-0.1-0.1-0.1-0.2-0.1-0.4L39.4,35c0-0.2,0.2-0.4,0.5-0.4h9.5c3,0,5.2,0.8,6.6,2.4
						c1.4,1.6,1.8,3.8,1.3,6.6c-0.4,2.2-1.6,4.3-3.3,5.8c-1,0.9-2.2,1.6-3.5,2.1c-1.5,0.4-3.1,0.6-4.7,0.6h-3.9l-1.1,5.6
						c0,0.2-0.2,0.4-0.5,0.4L35.4,58z"/>
					<path class="st5" d="M44.9,39.6h2.6c2.1,0,2.8,0.5,3.1,0.7c0.4,0.4,0.5,1.4,0.2,2.7c-0.1,1.2-0.7,2.3-1.6,3.2
						c-1.2,0.7-2.5,1-3.9,0.9h-1.9L44.9,39.6L44.9,39.6z M49.4,34.2h-9.5c-0.5,0-0.9,0.3-0.9,0.7l-4.4,22.5c-0.1,0.5,0.2,1,0.7,1.1
						h0.2h5c0.5,0,0.9-0.3,0.9-0.7l1-5.2h3.5c1.7,0,3.3-0.2,4.9-0.6c1.4-0.4,2.6-1.2,3.6-2.2c1.8-1.6,2.9-3.7,3.4-6
						c0.6-2.9,0.1-5.3-1.4-7C54.9,35,52.5,34.2,49.4,34.2 M42.3,48h3c1.6,0.1,3.1-0.3,4.5-1.1c1.1-1,1.8-2.3,2-3.7
						c0.3-1.7,0.2-2.8-0.5-3.5c-0.6-0.7-1.9-1-3.8-1h-3.4L42.3,48 M49.4,35.1c2.9,0,5,0.7,6.3,2.2c1.3,1.5,1.7,3.6,1.2,6.2
						c-0.2,1.1-0.6,2.1-1.1,3c-0.5,0.9-1.2,1.8-2,2.5c-0.9,0.9-2.1,1.6-3.3,2c-1.5,0.4-3.1,0.6-4.6,0.6h-4.2l-1.2,6h-5l4.4-22.5
						L49.4,35.1"/>
					<path d="M68.7,52c-0.1,0-0.3-0.1-0.4-0.2c-0.1-0.1-0.1-0.2-0.1-0.4l2-9.9c0.2-0.9,0.1-1.6-0.1-1.9c-0.3-0.3-0.7-0.5-2.1-0.5
						h-3.6l-2.5,12.5c0,0.2-0.2,0.4-0.5,0.4h-4.9c-0.3,0-0.5-0.2-0.5-0.5c0,0,0,0,0,0c0,0,0-0.1,0-0.1L60.5,29
						c0-0.2,0.2-0.4,0.5-0.4h4.9c0.3,0,0.5,0.2,0.5,0.5l0,0v0.1l-1.1,5.4h3.8c2.9,0,4.9,0.5,6,1.5c1.1,1,1.5,2.8,1.1,5l-2.1,10.4
						c0,0.2-0.2,0.4-0.5,0.4L68.7,52z"/>
					<path class="st5" d="M65.9,28.2H61c-0.5,0-0.9,0.3-0.9,0.7l-4.4,22.5c-0.1,0.5,0.2,1,0.7,1.1h0.2h4.9c0.5,0,0.9-0.3,0.9-0.7
						l2.4-12.1H68c1.5,0,1.8,0.3,1.8,0.3c0,0,0.2,0.5,0,1.5l-2,10c-0.1,0.5,0.2,1,0.7,1.1h0.2h5c0.5,0,0.9-0.3,0.9-0.7l2.1-10.4
						c0.5-2.5,0.1-4.3-1.2-5.5c-1.3-1.2-3.3-1.7-6.3-1.7h-3.3l0.9-4.9c0.1-0.5-0.2-1-0.7-1.1L65.9,28.2 M65.9,29.2l-1.2,6h4.4
						c2.8,0,4.7,0.5,5.7,1.4c1,0.9,1.4,2.5,0.9,4.6l-2.1,10.4h-5l2-10c0.2-1.1,0.1-1.9-0.2-2.3c-0.7-0.5-1.6-0.7-2.5-0.6H64
						l-2.5,12.9h-4.9L61,29.1L65.9,29.2"/>
					<path d="M84,47.6c1.5,0.1,2.9-0.2,4.2-1c1-0.9,1.6-2.1,1.8-3.4c0.3-1.5,0.2-2.6-0.3-3.1c-0.5-0.6-1.7-0.9-3.4-0.9h-3l-1.7,8.5
						L84,47.6z M74.1,58c-0.1,0-0.3-0.1-0.4-0.2c-0.1-0.1-0.1-0.2-0.1-0.4L78.1,35c0-0.2,0.2-0.4,0.5-0.4h9.5c3,0,5.2,0.8,6.6,2.4
						c1.4,1.6,1.8,3.8,1.3,6.6c-0.2,1.1-0.6,2.2-1.2,3.1c-0.5,1-1.3,1.9-2.1,2.6c-1,0.9-2.2,1.6-3.5,2.1c-1.5,0.4-3.1,0.6-4.7,0.6
						h-3.9l-1.1,5.6c0,0.2-0.2,0.4-0.5,0.4L74.1,58z"/>
					<path class="st5" d="M83.6,39.6h2.6c2.1,0,2.8,0.5,3.1,0.7c0.4,0.4,0.5,1.4,0.2,2.7c-0.1,1.2-0.7,2.3-1.6,3.2
						c-1.2,0.7-2.5,1.1-3.9,0.9h-1.9L83.6,39.6L83.6,39.6z M88.1,34.2h-9.5c-0.5,0-0.9,0.3-0.9,0.7l-4.4,22.5
						c-0.1,0.5,0.2,1,0.7,1.1h0.2h5c0.5,0,0.9-0.3,0.9-0.7l1-5.2h3.5c1.7,0,3.3-0.2,4.9-0.6c1.4-0.4,2.6-1.2,3.6-2.2
						c0.9-0.8,1.6-1.7,2.2-2.7c0.6-1,1-2.1,1.2-3.3c0.6-2.9,0.1-5.3-1.4-7C93.6,35,91.2,34.2,88.1,34.2 M81,48h3
						c1.6,0.1,3.1-0.3,4.5-1.1c1.1-1,1.8-2.3,2-3.7c0.3-1.7,0.2-2.8-0.5-3.5c-0.6-0.7-1.9-1-3.8-1h-3.4L81,48 M88.1,35.1
						c2.9,0,5,0.7,6.3,2.2c1.3,1.5,1.7,3.6,1.2,6.2c-0.2,1.1-0.5,2.1-1.1,3c-0.5,0.9-1.2,1.8-2,2.5c-0.9,0.9-2.1,1.5-3.3,1.9
						c-1.5,0.4-3.1,0.6-4.6,0.6h-4.3l-1.2,6h-5l4.4-22.5L88.1,35.1"/>
				</g>
			</g>
		</g>
	</g>
</g>
</svg>
