<svg width="40" height="40" viewBox="0 0 40 40" fill="none" xmlns="http://www.w3.org/2000/svg">
<path d="M18.2727 12.1254C18.255 12.1099 17.7135 11.9913 17.0695 11.862C16.4253 11.7328 15.8913 11.6468 15.8828 11.6708C15.8743 11.6948 15.8076 12.0853 15.7347 12.5384C15.5883 13.4484 15.2339 14.5108 14.8551 15.1753C13.6746 17.2461 11.5564 18.6173 8.98737 18.9737L8.33317 19.0645L8.33317 19.9793L8.33317 20.8941L8.92611 20.981C12.8108 21.5502 15.3435 24.0868 15.8173 27.8828C15.8482 28.1307 15.8851 28.3334 15.8994 28.3334C16.0304 28.3334 18.2013 27.8765 18.2423 27.8403C18.272 27.8142 18.2499 27.5818 18.1932 27.324C17.565 24.4698 15.7663 22.1473 13.4322 21.1762L12.8723 20.9432L24.386 20.925L31.6665 20.9134L31.6665 19.062L24.3672 19.0504L12.8807 19.0321L13.5875 18.7193C15.4213 17.908 16.8732 16.3165 17.7282 14.1803C17.9718 13.5717 18.3394 12.1842 18.2727 12.1254Z" fill="white"/>
</svg>
