<?xml version="1.0" encoding="utf-8"?>
<!-- Generator: Adobe Illustrator 24.2.0, SVG Export Plug-In . SVG Version: 6.00 Build 0)  -->
<svg version="1.1"
	 id="svg24" inkscape:version="0.92.3 (2405546, 2018-03-11)" sodipodi:docname="slack-ar21.svg" xmlns:cc="http://creativecommons.org/ns#" xmlns:dc="http://purl.org/dc/elements/1.1/" xmlns:inkscape="http://www.inkscape.org/namespaces/inkscape" xmlns:rdf="http://www.w3.org/1999/02/22-rdf-syntax-ns#" xmlns:sodipodi="http://sodipodi.sourceforge.net/DTD/sodipodi-0.dtd" xmlns:svg="http://www.w3.org/2000/svg"
	 xmlns="http://www.w3.org/2000/svg" xmlns:xlink="http://www.w3.org/1999/xlink" x="0px" y="0px" viewBox="0 0 130 90"
	 style="enable-background:new 0 0 130 90;" xml:space="preserve">
<style type="text/css">
	.st0{fill-rule:evenodd;clip-rule:evenodd;fill:#E01E5A;}
	.st1{fill-rule:evenodd;clip-rule:evenodd;fill:#ECB22D;}
	.st2{fill-rule:evenodd;clip-rule:evenodd;fill:#2FB67C;}
	.st3{fill-rule:evenodd;clip-rule:evenodd;fill:#36C5F1;}
</style>
<sodipodi:namedview  bordercolor="#666666" borderopacity="1" gridtolerance="10" guidetolerance="10" id="namedview26" inkscape:current-layer="svg24" inkscape:cx="52" inkscape:cy="16" inkscape:pageopacity="0" inkscape:pageshadow="2" inkscape:window-height="725" inkscape:window-maximized="0" inkscape:window-width="1296" inkscape:window-x="67" inkscape:window-y="27" inkscape:zoom="3.375" objecttolerance="10" pagecolor="#ffffff" showgrid="false">
	</sodipodi:namedview>
<path id="path8" inkscape:connector-curvature="0" class="st0" d="M53.3,51.9c0-2.9,2.2-5.2,5-5.2s5,2.3,5,5.2v12.9
	c0,2.9-2.2,5.2-5,5.2s-5-2.3-5-5.2V51.9z"/>
<path id="path10" inkscape:connector-curvature="0" class="st1" d="M71.9,56.7c-2.9,0-5.2-2.2-5.2-5c0-2.8,2.3-5,5.2-5h12.9
	c2.9,0,5.2,2.2,5.2,5c0,2.8-2.3,5-5.2,5H71.9z"/>
<path id="path12" inkscape:connector-curvature="0" class="st2" d="M66.7,25.2c0-2.9,2.2-5.2,5-5.2c2.8,0,5,2.3,5,5.2v12.9
	c0,2.9-2.2,5.2-5,5.2c-2.8,0-5-2.3-5-5.2V25.2z"/>
<path id="path14" inkscape:connector-curvature="0" class="st3" d="M45.2,43.3c-2.9,0-5.2-2.2-5.2-5s2.3-5,5.2-5h12.9
	c2.9,0,5.2,2.2,5.2,5s-2.3,5-5.2,5H45.2z"/>
<path id="path16" inkscape:connector-curvature="0" class="st1" d="M66.7,65c0,2.8,2.2,5,5,5c2.8,0,5-2.2,5-5s-2.2-5-5-5h-5V65z"/>
<path id="path18" inkscape:connector-curvature="0" class="st2" d="M85,43.3h-5v-5c0-2.8,2.2-5,5-5s5,2.2,5,5S87.8,43.3,85,43.3z"/>
<path id="path20" inkscape:connector-curvature="0" class="st0" d="M45,46.7h5v5c0,2.8-2.2,5-5,5s-5-2.2-5-5
	C40,48.9,42.2,46.7,45,46.7z"/>
<path id="path22" inkscape:connector-curvature="0" class="st3" d="M63.3,25v5h-5c-2.8,0-5-2.2-5-5s2.2-5,5-5S63.3,22.2,63.3,25z"/>
</svg>
