<?xml version="1.0" encoding="utf-8"?>
<!-- Generator: Adobe Illustrator 24.2.0, SVG Export Plug-In . SVG Version: 6.00 Build 0)  -->
<svg version="1.1" id="Layer_1" xmlns="http://www.w3.org/2000/svg" xmlns:xlink="http://www.w3.org/1999/xlink" x="0px" y="0px"
	 viewBox="0 0 130 90" style="enable-background:new 0 0 130 90;" xml:space="preserve">
<style type="text/css">
	.st0{fill-rule:evenodd;clip-rule:evenodd;fill:url(#SVGID_1_);}
</style>
<g id="Layer_2_1_">
	<g id="Layer_1-2">
		
			<linearGradient id="SVGID_1_" gradientUnits="userSpaceOnUse" x1="538.6754" y1="625.7023" x2="538.6754" y2="531.3626" gradientTransform="matrix(0.53 0 0 0.53 -220.498 -261.449)">
			<stop  offset="0.18" style="stop-color:#0052CC"/>
			<stop  offset="1" style="stop-color:#2684FF"/>
		</linearGradient>
		<path class="st0" d="M83.8,20H46.4c-3.4,0-6.3,2.7-6.3,6.2c0,0,0,0.1,0,0.1v37.5c0,3.4,2.8,6.2,6.2,6.2c0,0,0,0,0,0h37.4
			c3.4,0,6.2-2.8,6.2-6.2V26.3C90,22.9,87.2,20.1,83.8,20z M61.8,57.9c0,1.7-1.3,3-3,3h-9.2c-1.7,0-3-1.3-3-3V29.5c0-1.7,1.3-3,3-3
			h9.3c1.7,0,3,1.3,3,3l0,0L61.8,57.9z M83.6,45.4c0,1.7-1.3,3-3,3h-9.3c-1.7,0-3-1.3-3-3V29.5c0-1.7,1.3-3,3-3h9.3c1.7,0,3,1.3,3,3
			L83.6,45.4z"/>
	</g>
</g>
</svg>
