<?xml version="1.0" encoding="utf-8"?>
<!-- Generator: Adobe Illustrator 24.2.0, SVG Export Plug-In . SVG Version: 6.00 Build 0)  -->
<svg version="1.1" id="Layer_1" xmlns="http://www.w3.org/2000/svg" xmlns:xlink="http://www.w3.org/1999/xlink" x="0px" y="0px"
	 viewBox="0 0 130 90" style="enable-background:new 0 0 130 90;" xml:space="preserve">
<style type="text/css">
	.st0{fill:#00749A;}
</style>
<g id="Layer_2_1_">
	<g id="Wordpress">
		<path class="st0" d="M43.6,45c-0.1,8.2,4.6,15.8,12,19.4l-10.1-28C44.2,39.1,43.6,42.1,43.6,45L43.6,45z M79.5,43.9
			c0-2.1-0.7-4.2-1.8-6c-1.1-1.5-1.8-3.2-2-5c0-2,1.6-3.7,3.6-3.8h0.3c-3.9-3.6-9.1-5.6-14.5-5.6c-7.2,0.1-13.9,3.7-17.9,9.7h1.4
			c2.3,0,5.7-0.3,5.7-0.3c0.5,0,0.9,0.4,0.9,0.9c0,0.4-0.3,0.8-0.7,0.9c-0.9,0.1-1.7,0.1-2.6,0.1l7.8,23.2l4.7-14l-3.3-9.1l-2.3-0.2
			c-0.5-0.1-0.8-0.6-0.7-1.1c0.1-0.4,0.4-0.7,0.8-0.8c0,0,3.5,0.3,5.6,0.3c2.1,0,5.7-0.3,5.7-0.3c0.5,0,0.9,0.4,0.9,0.9
			c0,0.4-0.3,0.8-0.7,0.9c-0.8,0.1-1.6,0.2-2.5,0.2L75.7,58l2.2-7.2C78.7,48.6,79.3,46.2,79.5,43.9L79.5,43.9z M65.4,46.9L59,65.5
			c2,0.6,4,0.9,6.1,0.9c2.4,0,4.8-0.4,7.2-1.2C72.1,65.2,72,65.1,72,65L65.4,46.9z M83.9,34.8l0.2,2.2c0,2.7-0.6,5.3-1.6,7.7
			l-6.5,18.9c6.6-3.8,10.7-10.9,10.7-18.6C86.5,41.4,85.5,37.9,83.9,34.8L83.9,34.8z M65,20c-13.8,0-25,11.2-25,25
			c0,13.8,11.2,25,25,25s25-11.2,25-25c0,0,0,0,0,0C90,31.2,78.8,20,65,20z M65,68.9c-13.2,0-23.8-10.7-23.8-23.8
			c0-13.2,10.7-23.8,23.8-23.8c13.1,0,23.8,10.6,23.8,23.7C88.9,58.1,78.3,68.8,65,68.9C65.1,68.9,65,68.9,65,68.9z"/>
	</g>
</g>
</svg>
